<svg xmlns="http://www.w3.org/2000/svg" width="720" height="299" viewBox="0 0 720 299" fill="none">
<path d="M196 235.8V291H133.2V235.8H1.49012e-07V179.4L115.2 7.8H195.6V181.4H234.8V235.8H196ZM133.6 76.6H132.4L65.2 181.4H133.6V76.6ZM472.594 148.6C472.594 168.6 470.594 187.667 466.594 205.8C462.594 223.933 456.194 239.933 447.394 253.8C438.594 267.4 427.127 278.333 412.994 286.6C399.127 294.6 382.194 298.6 362.194 298.6C342.194 298.6 325.127 294.6 310.994 286.6C296.86 278.333 285.26 267.4 276.194 253.8C267.394 239.933 260.994 223.933 256.994 205.8C252.994 187.667 250.994 168.6 250.994 148.6C250.994 128.6 252.994 109.667 256.994 91.8C260.994 73.6667 267.394 57.9333 276.194 44.6C285.26 31 296.86 20.2 310.994 12.2C325.127 4.19998 342.194 0.199977 362.194 0.199977C382.194 0.199977 399.127 4.19998 412.994 12.2C427.127 20.2 438.594 31 447.394 44.6C456.194 57.9333 462.594 73.6667 466.594 91.8C470.594 109.667 472.594 128.6 472.594 148.6ZM403.794 148.6C403.794 139.8 403.26 130.067 402.194 119.4C401.127 108.733 399.127 98.8667 396.194 89.8C393.26 80.4667 388.994 72.7333 383.394 66.6C378.06 60.2 370.994 57 362.194 57C353.394 57 346.194 60.2 340.594 66.6C334.994 72.7333 330.594 80.4667 327.394 89.8C324.46 98.8667 322.46 108.733 321.394 119.4C320.327 130.067 319.794 139.8 319.794 148.6C319.794 157.667 320.327 167.667 321.394 178.6C322.46 189.267 324.46 199.267 327.394 208.6C330.594 217.667 334.994 225.4 340.594 231.8C346.194 237.933 353.394 241 362.194 241C370.994 241 378.06 237.933 383.394 231.8C388.994 225.4 393.26 217.667 396.194 208.6C399.127 199.267 401.127 189.267 402.194 178.6C403.26 167.667 403.794 157.667 403.794 148.6ZM681.188 235.8V291H618.388V235.8H485.188V179.4L600.388 7.8H680.787V181.4H719.988V235.8H681.188ZM618.788 76.6H617.588L550.388 181.4H618.788V76.6Z" fill="url(#paint0_radial_11904_298699)" fill-opacity="0.16"/>
<path d="M196 235.8V233.8H194V235.8H196ZM196 291V293H198V291H196ZM133.2 291H131.2V293H133.2V291ZM133.2 235.8H135.2V233.8H133.2V235.8ZM1.49012e-07 235.8H-2V237.8H1.49012e-07V235.8ZM1.49012e-07 179.4L-1.66052 178.285L-2 178.791V179.4H1.49012e-07ZM115.2 7.8V5.8H114.134L113.539 6.68524L115.2 7.8ZM195.6 7.8H197.6V5.8H195.6V7.8ZM195.6 181.4H193.6V183.4H195.6V181.4ZM234.8 181.4H236.8V179.4H234.8V181.4ZM234.8 235.8V237.8H236.8V235.8H234.8ZM133.6 76.6H135.6V74.6H133.6V76.6ZM132.4 76.6V74.6H131.307L130.716 75.5204L132.4 76.6ZM65.2 181.4L63.5164 180.32L61.5417 183.4H65.2V181.4ZM133.6 181.4V183.4H135.6V181.4H133.6ZM194 235.8V291H198V235.8H194ZM196 289H133.2V293H196V289ZM135.2 291V235.8H131.2V291H135.2ZM133.2 233.8H1.49012e-07V237.8H133.2V233.8ZM2 235.8V179.4H-2V235.8H2ZM1.66052 180.515L116.861 8.91475L113.539 6.68524L-1.66052 178.285L1.66052 180.515ZM115.2 9.8H195.6V5.8H115.2V9.8ZM193.6 7.8V181.4H197.6V7.8H193.6ZM195.6 183.4H234.8V179.4H195.6V183.4ZM232.8 181.4V235.8H236.8V181.4H232.8ZM234.8 233.8H196V237.8H234.8V233.8ZM133.6 74.6H132.4V78.6H133.6V74.6ZM130.716 75.5204L63.5164 180.32L66.8836 182.48L134.084 77.6796L130.716 75.5204ZM65.2 183.4H133.6V179.4H65.2V183.4ZM135.6 181.4V76.6H131.6V181.4H135.6ZM447.394 253.8L449.073 254.887L449.078 254.879L449.082 254.872L447.394 253.8ZM412.994 286.6L413.993 288.332L414.004 288.326L412.994 286.6ZM310.994 286.6L309.984 288.326L309.996 288.334L310.009 288.341L310.994 286.6ZM276.194 253.8L274.505 254.872L274.517 254.891L274.53 254.909L276.194 253.8ZM256.994 205.8L255.041 206.231L256.994 205.8ZM256.994 91.8L258.945 92.2369L258.947 92.2308L256.994 91.8ZM276.194 44.6L274.53 43.4906L274.525 43.4983L276.194 44.6ZM310.994 12.2L311.979 13.9405L311.979 13.9405L310.994 12.2ZM412.994 12.2L411.994 13.9324L412.001 13.9365L412.009 13.9405L412.994 12.2ZM447.394 44.6L445.715 45.6865L445.72 45.6941L445.725 45.7017L447.394 44.6ZM466.594 91.8L464.641 92.2308L464.642 92.2369L466.594 91.8ZM396.194 89.8L394.286 90.3996L394.288 90.4076L394.291 90.4156L396.194 89.8ZM383.394 66.6L381.857 67.8803L381.886 67.9151L381.917 67.9485L383.394 66.6ZM340.594 66.6L342.071 67.9485L342.085 67.9329L342.099 67.917L340.594 66.6ZM327.394 89.8L325.502 89.1513L325.496 89.1678L325.491 89.1844L327.394 89.8ZM321.394 119.4L323.384 119.599L323.384 119.599L321.394 119.4ZM321.394 178.6L319.403 178.794L319.404 178.799L321.394 178.6ZM327.394 208.6L325.486 209.2L325.496 209.233L325.508 209.266L327.394 208.6ZM340.594 231.8L339.089 233.117L339.103 233.133L339.117 233.149L340.594 231.8ZM383.394 231.8L381.889 230.483L381.885 230.488L383.394 231.8ZM396.194 208.6L398.097 209.216L398.099 209.208L398.102 209.2L396.194 208.6ZM402.194 178.6L404.184 178.799L404.184 178.794L402.194 178.6ZM470.594 148.6C470.594 168.466 468.607 187.388 464.641 205.369L468.547 206.231C472.58 187.946 474.594 168.734 474.594 148.6H470.594ZM464.641 205.369C460.684 223.305 454.365 239.082 445.705 252.728L449.082 254.872C458.022 240.784 464.503 224.562 468.547 206.231L464.641 205.369ZM445.715 252.713C437.087 266.048 425.85 276.763 411.984 284.874L414.004 288.326C428.404 279.903 440.101 268.752 449.073 254.887L445.715 252.713ZM411.994 284.868C398.499 292.654 381.929 296.6 362.194 296.6V300.6C382.458 300.6 399.756 296.546 413.993 288.332L411.994 284.868ZM362.194 296.6C342.46 296.6 325.75 292.654 311.979 284.859L310.009 288.341C324.505 296.546 341.928 300.6 362.194 300.6V296.6ZM312.004 284.874C298.132 276.76 286.756 266.037 277.858 252.691L274.53 254.909C283.765 268.763 295.589 279.907 309.984 288.326L312.004 284.874ZM277.882 252.728C269.222 239.082 262.903 223.305 258.947 205.369L255.041 206.231C259.084 224.562 265.565 240.784 274.505 254.872L277.882 252.728ZM258.947 205.369C254.98 187.388 252.994 168.466 252.994 148.6H248.994C248.994 168.734 251.007 187.946 255.041 206.231L258.947 205.369ZM252.994 148.6C252.994 128.734 254.98 109.948 258.945 92.2369L255.042 91.363C251.007 109.386 248.994 128.466 248.994 148.6H252.994ZM258.947 92.2308C262.902 74.2984 269.218 58.8003 277.863 45.7017L274.525 43.4983C265.57 57.0663 259.085 73.0349 255.041 91.3692L258.947 92.2308ZM277.858 45.7094C286.752 32.3683 298.12 21.7852 311.979 13.9405L310.009 10.4595C295.601 18.6148 283.769 29.6317 274.53 43.4906L277.858 45.7094ZM311.979 13.9405C325.75 6.14576 342.46 2.19998 362.194 2.19998V-1.80002C341.928 -1.80002 324.505 2.2542 310.009 10.4595L311.979 13.9405ZM362.194 2.19998C381.929 2.19998 398.499 6.14634 411.994 13.9324L413.993 10.4676C399.756 2.25362 382.458 -1.80002 362.194 -1.80002V2.19998ZM412.009 13.9405C425.862 21.7821 437.09 32.358 445.715 45.6865L449.073 43.5135C440.097 29.642 428.392 18.6179 413.979 10.4595L412.009 13.9405ZM445.725 45.7017C454.37 58.8003 460.685 74.2984 464.641 92.2308L468.547 91.3692C464.502 73.0349 458.018 57.0663 449.063 43.4983L445.725 45.7017ZM464.642 92.2369C468.607 109.948 470.594 128.734 470.594 148.6H474.594C474.594 128.466 472.58 109.386 468.545 91.363L464.642 92.2369ZM405.794 148.6C405.794 139.721 405.256 129.92 404.184 119.201L400.204 119.599C401.265 130.213 401.794 139.879 401.794 148.6H405.794ZM404.184 119.201C403.105 108.41 401.079 98.402 398.097 89.1844L394.291 90.4156C397.175 99.3313 399.149 109.057 400.204 119.599L404.184 119.201ZM398.102 89.2003C395.096 79.638 390.699 71.635 384.871 65.2514L381.917 67.9485C387.288 73.8316 391.424 81.2953 394.286 90.3996L398.102 89.2003ZM384.93 65.3196C379.193 58.435 371.549 55 362.194 55V59C370.438 59 376.928 61.9649 381.857 67.8803L384.93 65.3196ZM362.194 55C352.84 55 345.083 58.432 339.089 65.283L342.099 67.917C347.304 61.968 353.948 59 362.194 59V55ZM339.117 65.2514C333.301 71.6215 328.774 79.6067 325.502 89.1513L329.286 90.4486C332.413 81.3266 336.687 73.8451 342.071 67.9485L339.117 65.2514ZM325.491 89.1844C322.509 98.402 320.483 108.41 319.404 119.201L323.384 119.599C324.438 109.057 326.412 99.3313 329.297 90.4156L325.491 89.1844ZM319.404 119.201C318.332 129.92 317.794 139.721 317.794 148.6H321.794C321.794 139.879 322.322 130.213 323.384 119.599L319.404 119.201ZM317.794 148.6C317.794 157.743 318.332 167.809 319.403 178.794L323.384 178.406C322.323 167.524 321.794 157.59 321.794 148.6H317.794ZM319.404 178.799C320.483 189.589 322.508 199.724 325.486 209.2L329.302 208C326.413 198.809 324.438 188.944 323.384 178.401L319.404 178.799ZM325.508 209.266C328.781 218.541 333.301 226.503 339.089 233.117L342.099 230.483C336.686 224.297 332.406 216.793 329.28 207.934L325.508 209.266ZM339.117 233.149C345.12 239.724 352.869 243 362.194 243V239C353.918 239 347.267 236.143 342.071 230.451L339.117 233.149ZM362.194 243C371.519 243 379.156 239.722 384.903 233.112L381.885 230.488C376.965 236.145 370.469 239 362.194 239V243ZM384.899 233.117C390.698 226.489 395.09 218.51 398.097 209.216L394.291 207.984C391.431 216.824 387.289 224.311 381.889 230.483L384.899 233.117ZM398.102 209.2C401.08 199.724 403.105 189.589 404.184 178.799L400.204 178.401C399.149 188.944 397.174 198.809 394.286 208L398.102 209.2ZM404.184 178.794C405.256 167.809 405.794 157.743 405.794 148.6H401.794C401.794 157.59 401.265 167.524 400.203 178.406L404.184 178.794ZM681.188 235.8V233.8H679.188V235.8H681.188ZM681.188 291V293H683.188V291H681.188ZM618.388 291H616.388V293H618.388V291ZM618.388 235.8H620.388V233.8H618.388V235.8ZM485.188 235.8H483.188V237.8H485.188V235.8ZM485.188 179.4L483.527 178.285L483.188 178.791V179.4H485.188ZM600.388 7.8V5.8H599.321L598.727 6.68524L600.388 7.8ZM680.787 7.8H682.787V5.8H680.787V7.8ZM680.787 181.4H678.787V183.4H680.787V181.4ZM719.988 181.4H721.988V179.4H719.988V181.4ZM719.988 235.8V237.8H721.988V235.8H719.988ZM618.788 76.6H620.788V74.6H618.788V76.6ZM617.588 76.6V74.6H616.494L615.904 75.5204L617.588 76.6ZM550.388 181.4L548.704 180.32L546.729 183.4H550.388V181.4ZM618.788 181.4V183.4H620.788V181.4H618.788ZM679.188 235.8V291H683.188V235.8H679.188ZM681.188 289H618.388V293H681.188V289ZM620.388 291V235.8H616.388V291H620.388ZM618.388 233.8H485.188V237.8H618.388V233.8ZM487.188 235.8V179.4H483.188V235.8H487.188ZM486.848 180.515L602.048 8.91475L598.727 6.68524L483.527 178.285L486.848 180.515ZM600.388 9.8H680.787V5.8H600.388V9.8ZM678.787 7.8V181.4H682.787V7.8H678.787ZM680.787 183.4H719.988V179.4H680.787V183.4ZM717.988 181.4V235.8H721.988V181.4H717.988ZM719.988 233.8H681.188V237.8H719.988V233.8ZM618.788 74.6H617.588V78.6H618.788V74.6ZM615.904 75.5204L548.704 180.32L552.071 182.48L619.271 77.6796L615.904 75.5204ZM550.388 183.4H618.788V179.4H550.388V183.4ZM620.788 181.4V76.6H616.788V181.4H620.788Z" fill="url(#paint1_linear_11904_298699)" fill-opacity="0.2"/>
<defs>
<radialGradient id="paint0_radial_11904_298699" cx="0" cy="0" r="1" gradientUnits="userSpaceOnUse" gradientTransform="translate(362 164) rotate(90) scale(170 372)">
<stop stop-color="white"/>
<stop offset="1" stop-color="white" stop-opacity="0"/>
</radialGradient>
<linearGradient id="paint1_linear_11904_298699" x1="-10" y1="-6" x2="247.067" y2="556.523" gradientUnits="userSpaceOnUse">
<stop stop-color="white"/>
<stop offset="1" stop-color="white" stop-opacity="0"/>
</linearGradient>
</defs>
</svg>
